<?xml version="1.0" ?><svg viewBox="0 0 64 64" xmlns="http://www.w3.org/2000/svg"><defs><style>.cls-1{fill:#73737b;}.cls-2{fill:#a4a4ac;}.cls-3{fill:#1394f6;}.cls-4{fill:#fff;}</style></defs><title/><g data-name="filled outline" id="filled_outline"><path class="cls-1" d="M50.5,44.5h2a1,1,0,0,1,1,1v4a1,1,0,0,1-1,1h-2a0,0,0,0,1,0,0v-6A0,0,0,0,1,50.5,44.5Z" transform="translate(99.5 -4.5) rotate(90)"/><path class="cls-1" d="M10.5,44.5h2a1,1,0,0,1,1,1v4a1,1,0,0,1-1,1h-2a0,0,0,0,1,0,0v-6A0,0,0,0,1,10.5,44.5Z" transform="translate(59.5 35.5) rotate(90)"/><path class="cls-2" d="M31,8h3a0,0,0,0,1,0,0V24a0,0,0,0,1,0,0H31a1,1,0,0,1-1-1V9A1,1,0,0,1,31,8Z" transform="translate(48 -16) rotate(90)"/><rect class="cls-3" height="58" rx="4" transform="translate(64) rotate(90)" width="28" x="18" y="3"/><rect class="cls-4" height="50" transform="translate(64) rotate(90)" width="20" x="22" y="7"/><path d="M19,39H11V31h6V27H11V25h8v8H13v4h6Zm10-6V25H21v2h6v4H21v2h6v4H21v2h8Zm14-2H37V27h6V25H35v8h6v4H35v2h8Zm10,8H45V37h6V33H45V25h8ZM51,27H47v4h4ZM33,28H31v2h2Zm0,6H31v2h2ZM62,22V42a5,5,0,0,1-5,5H56v1a2,2,0,0,1-2,2H50a2,2,0,0,1-2-2V47H16v1a2,2,0,0,1-2,2H10a2,2,0,0,1-2-2V47H7a5,5,0,0,1-5-5V22a5,5,0,0,1,5-5H23V15a2,2,0,0,1,2-2H39a2,2,0,0,1,2,2v2H57A5,5,0,0,1,62,22ZM25,17H39V15H25ZM14,47H10v1h4Zm40,0H50v1h4Zm6-25a3,3,0,0,0-3-3H7a3,3,0,0,0-3,3V42a3,3,0,0,0,3,3H57a3,3,0,0,0,3-3Zm-2,0V42a1,1,0,0,1-1,1H7a1,1,0,0,1-1-1V22a1,1,0,0,1,1-1H57A1,1,0,0,1,58,22Zm-2,1H8V41H56Z"/></g></svg>